<mxfile host="app.diagrams.net" modified="2023-11-14T00:09:32.902Z" agent="5.0 (Windows)" version="20.6.0" etag="eNGmufB7hnMqueXokb3i" type="github">
  <diagram id="9Iz2JitJ7VRoUgazTb_r" name="Page-1">
    <mxGraphModel dx="1778" dy="940" grid="1" gridSize="10" guides="1" tooltips="1" connect="1" arrows="1" fold="1" page="1" pageScale="1" pageWidth="850" pageHeight="1100" math="0" shadow="0">
      <root>
        <mxCell id="0" />
        <mxCell id="1" parent="0" />
        <mxCell id="ONevh3QhUTRrqRP_tkAR-36" value="" style="verticalLabelPosition=bottom;verticalAlign=top;html=1;shape=mxgraph.basic.rect;fillColor2=none;strokeWidth=1;size=20;indent=5;dashed=1;" vertex="1" parent="1">
          <mxGeometry x="38.75" y="680" width="560" height="110" as="geometry" />
        </mxCell>
        <mxCell id="ONevh3QhUTRrqRP_tkAR-1" value="" style="verticalLabelPosition=bottom;verticalAlign=top;html=1;shape=mxgraph.basic.rect;fillColor2=none;strokeWidth=1;size=20;indent=5;dashed=1;" vertex="1" parent="1">
          <mxGeometry x="38.75" y="80" width="560" height="570" as="geometry" />
        </mxCell>
        <mxCell id="ONevh3QhUTRrqRP_tkAR-43" value="" style="rounded=0;whiteSpace=wrap;html=1;fontSize=20;dashed=1;" vertex="1" parent="1">
          <mxGeometry x="398.75" y="250" width="185" height="390" as="geometry" />
        </mxCell>
        <mxCell id="ONevh3QhUTRrqRP_tkAR-2" value="&lt;div&gt;Safety Critical Systems&lt;/div&gt;" style="text;html=1;strokeColor=none;fillColor=none;align=left;verticalAlign=middle;whiteSpace=wrap;rounded=0;fontSize=20;" vertex="1" parent="1">
          <mxGeometry x="50" y="80" width="340" height="30" as="geometry" />
        </mxCell>
        <mxCell id="ONevh3QhUTRrqRP_tkAR-3" value="Drivetrain" style="rounded=1;whiteSpace=wrap;html=1;fontSize=20;" vertex="1" parent="1">
          <mxGeometry x="435" y="515" width="120" height="60" as="geometry" />
        </mxCell>
        <mxCell id="ONevh3QhUTRrqRP_tkAR-4" value="&lt;div&gt;VCU&lt;/div&gt;" style="rounded=1;whiteSpace=wrap;html=1;fontSize=20;" vertex="1" parent="1">
          <mxGeometry x="258.75" y="415" width="120" height="60" as="geometry" />
        </mxCell>
        <mxCell id="ONevh3QhUTRrqRP_tkAR-5" value="" style="rounded=0;whiteSpace=wrap;html=1;fontSize=20;dashed=1;" vertex="1" parent="1">
          <mxGeometry x="53.75" y="120" width="530" height="110" as="geometry" />
        </mxCell>
        <mxCell id="ONevh3QhUTRrqRP_tkAR-6" value="&lt;div&gt;Driver Input&lt;br&gt;&lt;/div&gt;" style="text;html=1;strokeColor=none;fillColor=none;align=left;verticalAlign=middle;whiteSpace=wrap;rounded=0;dashed=1;fontSize=20;" vertex="1" parent="1">
          <mxGeometry x="60" y="120" width="120" height="30" as="geometry" />
        </mxCell>
        <mxCell id="ONevh3QhUTRrqRP_tkAR-7" value="&lt;div&gt;APPS 1&lt;/div&gt;" style="rounded=1;whiteSpace=wrap;html=1;fontSize=20;" vertex="1" parent="1">
          <mxGeometry x="108.75" y="160" width="85" height="60" as="geometry" />
        </mxCell>
        <mxCell id="ONevh3QhUTRrqRP_tkAR-8" value="&lt;div&gt;APPS 2&lt;/div&gt;" style="rounded=1;whiteSpace=wrap;html=1;fontSize=20;" vertex="1" parent="1">
          <mxGeometry x="228.75" y="160" width="85" height="60" as="geometry" />
        </mxCell>
        <mxCell id="ONevh3QhUTRrqRP_tkAR-9" value="Brake Pedal" style="rounded=1;whiteSpace=wrap;html=1;fontSize=20;" vertex="1" parent="1">
          <mxGeometry x="338.75" y="160" width="85" height="60" as="geometry" />
        </mxCell>
        <mxCell id="ONevh3QhUTRrqRP_tkAR-10" value="" style="rounded=0;whiteSpace=wrap;html=1;fontSize=20;dashed=1;" vertex="1" parent="1">
          <mxGeometry x="53.75" y="250" width="185" height="390" as="geometry" />
        </mxCell>
        <mxCell id="ONevh3QhUTRrqRP_tkAR-11" value="&lt;div&gt;Accumulator&lt;/div&gt;" style="rounded=1;whiteSpace=wrap;html=1;fontSize=20;" vertex="1" parent="1">
          <mxGeometry x="435" y="315" width="120" height="60" as="geometry" />
        </mxCell>
        <mxCell id="ONevh3QhUTRrqRP_tkAR-13" value="" style="endArrow=classic;html=1;rounded=0;fontSize=20;exitX=0.5;exitY=1;exitDx=0;exitDy=0;entryX=0.5;entryY=0;entryDx=0;entryDy=0;" edge="1" parent="1" source="ONevh3QhUTRrqRP_tkAR-5" target="ONevh3QhUTRrqRP_tkAR-4">
          <mxGeometry width="50" height="50" relative="1" as="geometry">
            <mxPoint x="270" y="460" as="sourcePoint" />
            <mxPoint x="320" y="410" as="targetPoint" />
          </mxGeometry>
        </mxCell>
        <mxCell id="ONevh3QhUTRrqRP_tkAR-15" value="Shutdown Circuit" style="text;html=1;strokeColor=none;fillColor=none;align=left;verticalAlign=middle;whiteSpace=wrap;rounded=0;fontSize=20;" vertex="1" parent="1">
          <mxGeometry x="60" y="250" width="185" height="30" as="geometry" />
        </mxCell>
        <mxCell id="ONevh3QhUTRrqRP_tkAR-19" value="BOTS" style="rounded=1;whiteSpace=wrap;html=1;fontSize=20;" vertex="1" parent="1">
          <mxGeometry x="91.25" y="500" width="120" height="60" as="geometry" />
        </mxCell>
        <mxCell id="ONevh3QhUTRrqRP_tkAR-20" value="" style="endArrow=classic;startArrow=classic;html=1;rounded=0;fontSize=20;entryX=0;entryY=0.5;entryDx=0;entryDy=0;exitX=1;exitY=0.5;exitDx=0;exitDy=0;" edge="1" parent="1" source="ONevh3QhUTRrqRP_tkAR-10" target="ONevh3QhUTRrqRP_tkAR-4">
          <mxGeometry width="50" height="50" relative="1" as="geometry">
            <mxPoint x="240" y="470" as="sourcePoint" />
            <mxPoint x="290" y="420" as="targetPoint" />
          </mxGeometry>
        </mxCell>
        <mxCell id="ONevh3QhUTRrqRP_tkAR-22" value="&lt;div&gt;EStops&lt;/div&gt;" style="rounded=1;whiteSpace=wrap;html=1;fontSize=20;" vertex="1" parent="1">
          <mxGeometry x="91.25" y="430" width="120" height="60" as="geometry" />
        </mxCell>
        <mxCell id="ONevh3QhUTRrqRP_tkAR-23" value="&lt;div&gt;Master&lt;/div&gt;&lt;div&gt;Switches&lt;/div&gt;" style="rounded=1;whiteSpace=wrap;html=1;fontSize=20;" vertex="1" parent="1">
          <mxGeometry x="91.25" y="290" width="120" height="60" as="geometry" />
        </mxCell>
        <mxCell id="ONevh3QhUTRrqRP_tkAR-24" value="Tractive System" style="rounded=1;whiteSpace=wrap;html=1;fontSize=20;" vertex="1" parent="1">
          <mxGeometry x="435" y="415" width="120" height="60" as="geometry" />
        </mxCell>
        <mxCell id="ONevh3QhUTRrqRP_tkAR-25" value="" style="endArrow=classic;startArrow=classic;html=1;rounded=0;fontSize=20;entryX=0.5;entryY=1;entryDx=0;entryDy=0;exitX=0.5;exitY=0;exitDx=0;exitDy=0;" edge="1" parent="1" source="ONevh3QhUTRrqRP_tkAR-24" target="ONevh3QhUTRrqRP_tkAR-11">
          <mxGeometry width="50" height="50" relative="1" as="geometry">
            <mxPoint x="310" y="420" as="sourcePoint" />
            <mxPoint x="360" y="370" as="targetPoint" />
          </mxGeometry>
        </mxCell>
        <mxCell id="ONevh3QhUTRrqRP_tkAR-26" value="" style="endArrow=classic;startArrow=classic;html=1;rounded=0;fontSize=20;entryX=0.5;entryY=1;entryDx=0;entryDy=0;exitX=0.5;exitY=0;exitDx=0;exitDy=0;" edge="1" parent="1" source="ONevh3QhUTRrqRP_tkAR-3" target="ONevh3QhUTRrqRP_tkAR-24">
          <mxGeometry width="50" height="50" relative="1" as="geometry">
            <mxPoint x="505" y="440" as="sourcePoint" />
            <mxPoint x="505" y="400" as="targetPoint" />
          </mxGeometry>
        </mxCell>
        <mxCell id="ONevh3QhUTRrqRP_tkAR-27" value="Dashboard" style="rounded=1;whiteSpace=wrap;html=1;fontSize=20;" vertex="1" parent="1">
          <mxGeometry x="87.5" y="715" width="120" height="60" as="geometry" />
        </mxCell>
        <mxCell id="ONevh3QhUTRrqRP_tkAR-28" value="&lt;div&gt;DAQ&lt;/div&gt;" style="rounded=1;whiteSpace=wrap;html=1;fontSize=20;" vertex="1" parent="1">
          <mxGeometry x="257.5" y="715" width="120" height="60" as="geometry" />
        </mxCell>
        <mxCell id="ONevh3QhUTRrqRP_tkAR-29" value="&lt;div&gt;Relay&lt;/div&gt;&lt;div&gt;Control&lt;br&gt;&lt;/div&gt;" style="rounded=1;whiteSpace=wrap;html=1;strokeColor=#000000;fontSize=20;" vertex="1" parent="1">
          <mxGeometry x="91.25" y="360" width="120" height="60" as="geometry" />
        </mxCell>
        <mxCell id="ONevh3QhUTRrqRP_tkAR-34" value="&lt;div&gt;Inertia&lt;/div&gt;&lt;div&gt;Switch&lt;br&gt;&lt;/div&gt;" style="rounded=1;whiteSpace=wrap;html=1;strokeColor=#000000;fontSize=20;" vertex="1" parent="1">
          <mxGeometry x="91.75" y="570" width="120" height="60" as="geometry" />
        </mxCell>
        <mxCell id="ONevh3QhUTRrqRP_tkAR-35" value="Run Button" style="rounded=1;whiteSpace=wrap;html=1;fontSize=20;" vertex="1" parent="1">
          <mxGeometry x="451.25" y="160" width="85" height="60" as="geometry" />
        </mxCell>
        <mxCell id="ONevh3QhUTRrqRP_tkAR-38" value="Auxiliary Systems" style="text;html=1;strokeColor=none;fillColor=none;align=left;verticalAlign=middle;whiteSpace=wrap;rounded=0;fontSize=20;" vertex="1" parent="1">
          <mxGeometry x="50" y="680" width="340" height="30" as="geometry" />
        </mxCell>
        <mxCell id="ONevh3QhUTRrqRP_tkAR-39" value="" style="endArrow=classic;startArrow=classic;html=1;fontSize=20;curved=1;exitX=0.794;exitY=-0.008;exitDx=0;exitDy=0;exitPerimeter=0;entryX=0.502;entryY=1.002;entryDx=0;entryDy=0;entryPerimeter=0;" edge="1" parent="1" source="ONevh3QhUTRrqRP_tkAR-38" target="ONevh3QhUTRrqRP_tkAR-1">
          <mxGeometry width="50" height="50" relative="1" as="geometry">
            <mxPoint x="330" y="510" as="sourcePoint" />
            <mxPoint x="380" y="460" as="targetPoint" />
          </mxGeometry>
        </mxCell>
        <mxCell id="ONevh3QhUTRrqRP_tkAR-40" value="GLV Distribution" style="rounded=1;whiteSpace=wrap;html=1;fontSize=20;" vertex="1" parent="1">
          <mxGeometry x="430" y="715" width="120" height="60" as="geometry" />
        </mxCell>
        <mxCell id="ONevh3QhUTRrqRP_tkAR-44" value="" style="endArrow=classic;startArrow=classic;html=1;rounded=0;fontSize=20;entryX=0;entryY=0.5;entryDx=0;entryDy=0;exitX=1;exitY=0.5;exitDx=0;exitDy=0;" edge="1" parent="1">
          <mxGeometry width="50" height="50" relative="1" as="geometry">
            <mxPoint x="378.75" y="444.93" as="sourcePoint" />
            <mxPoint x="398.75" y="444.93" as="targetPoint" />
          </mxGeometry>
        </mxCell>
        <mxCell id="ONevh3QhUTRrqRP_tkAR-45" value="High Voltage" style="text;html=1;strokeColor=none;fillColor=none;align=left;verticalAlign=middle;whiteSpace=wrap;rounded=0;fontSize=20;" vertex="1" parent="1">
          <mxGeometry x="402.5" y="250" width="185" height="30" as="geometry" />
        </mxCell>
        <mxCell id="ONevh3QhUTRrqRP_tkAR-46" value="" style="endArrow=classic;startArrow=classic;html=1;fontSize=20;curved=1;exitX=1;exitY=0.75;exitDx=0;exitDy=0;entryX=0;entryY=0.75;entryDx=0;entryDy=0;" edge="1" parent="1" source="ONevh3QhUTRrqRP_tkAR-10" target="ONevh3QhUTRrqRP_tkAR-43">
          <mxGeometry width="50" height="50" relative="1" as="geometry">
            <mxPoint x="290" y="590" as="sourcePoint" />
            <mxPoint x="340" y="540" as="targetPoint" />
          </mxGeometry>
        </mxCell>
      </root>
    </mxGraphModel>
  </diagram>
</mxfile>
